{
	"asset":{
		"version":"2.0",
		"generator":"Created using the official Cinema 4D glTF Exporter 1.000x290161"
	},
	"scenes":[{
		"nodes":[0,
		1,
		2]
	}],
	"nodes":[{
		"name":"Joint"
	},
	{
		"name":"Camera",
		"translation":[135.23519897460938,
		101.18989562988281,
		962.6367797851563],
		"scale":[1.0,
		1.0,
		1.0],
		"rotation":[0.06455712765455246,
		-0.06808209419250488,
		-0.004414701368659735,
		-0.9955790638923645],
		"camera":0
	},
	{
		"name":"Sphere",
		"translation":[-0.000022232876290217973,
		-88.11923217773438,
		-0.000028880707759526558],
		"scale":[1.0,
		1.1200000047683716,
		1.0],
		"rotation":[1.613084918972163e-7,
		-0.9999721646308899,
		2.1303047503806739e-7,
		-0.007461897563189268],
		"mesh":0
	}],
	"meshes":[{
		"primitives":[{
			"attributes":{
				"POSITION":1,
				"NORMAL":2,
				"TEXCOORD_0":3
			},
			"indices":0,
			"material":0
		}]
	}],
	"cameras":[{
		"type":"perspective",
		"perspective":{
			"znear":0.009999999776482582,
			"zfar":10000000000.0,
			"aspectRatio":1.7777777910232545,
			"yfov":0.5483348965644836
		}
	}],
	"accessors":[{
		"bufferView":0,
		"byteOffset":0,
		"type":"SCALAR",
		"componentType":5123,
		"count":11136,
		"min":[0],
		"max":[4161]
	},
	{
		"bufferView":1,
		"byteOffset":0,
		"type":"VEC3",
		"componentType":5126,
		"count":4162,
		"min":[-70.23402404785156,
		-57.27524185180664,
		-73.1316909790039],
		"max":[70.6209716796875,
		598.2939453125,
		68.2964096069336]
	},
	{
		"bufferView":1,
		"byteOffset":12,
		"type":"VEC3",
		"componentType":5126,
		"count":4162,
		"min":[-0.9996663331985474,
		-0.9994818568229675,
		-0.9997290372848511],
		"max":[0.9998845458030701,
		1.0,
		0.99992436170578]
	},
	{
		"bufferView":1,
		"byteOffset":24,
		"type":"VEC2",
		"componentType":5126,
		"count":4162,
		"min":[0.0,
		0.0],
		"max":[0.8659999966621399,
		1.0]
	},
	{
		"bufferView":2,
		"byteOffset":0,
		"type":"SCALAR",
		"componentType":5126,
		"count":8,
		"min":[0.0],
		"max":[2.0]
	},
	{
		"bufferView":2,
		"byteOffset":32,
		"type":"VEC3",
		"componentType":5126,
		"count":8,
		"min":[-0.000024731076337047853,
		-95.7794189453125,
		-0.00003212588489986956],
		"max":[-0.000012492302630562335,
		23.74813461303711,
		-0.000016227639207500033]
	},
	{
		"bufferView":3,
		"byteOffset":0,
		"type":"SCALAR",
		"componentType":5126,
		"count":12,
		"min":[0.0],
		"max":[2.0]
	},
	{
		"bufferView":3,
		"byteOffset":48,
		"type":"VEC4",
		"componentType":5126,
		"count":12,
		"min":[-1.785423080491455e-7,
		-0.9906238913536072,
		-1.5326325808473485e-7,
		-0.9832406640052795],
		"max":[2.630867754760402e-7,
		-0.04391859471797943,
		2.6741702185972829e-7,
		0.999035120010376]
	},
	{
		"bufferView":4,
		"byteOffset":0,
		"type":"SCALAR",
		"componentType":5126,
		"count":7,
		"min":[0.0],
		"max":[2.0]
	},
	{
		"bufferView":4,
		"byteOffset":28,
		"type":"VEC3",
		"componentType":5126,
		"count":7,
		"min":[1.0,
		1.1200000047683716,
		1.0],
		"max":[1.0,
		1.1200000047683716,
		1.0]
	}],
	"bufferViews":[{
		"buffer":0,
		"byteOffset":0,
		"byteLength":22272,
		"target":34963
	},
	{
		"buffer":0,
		"byteOffset":22272,
		"byteLength":133184,
		"target":34962,
		"byteStride":32
	},
	{
		"buffer":1,
		"byteOffset":0,
		"byteLength":128
	},
	{
		"buffer":1,
		"byteOffset":128,
		"byteLength":240
	},
	{
		"buffer":1,
		"byteOffset":368,
		"byteLength":112
	}],
	"buffers":[{
		"uri":"data:application/octet-stream;base64,",
		"byteLength":155456
	},
	{
		"uri":"data:application/octet-stream;base64,",
		"byteLength":480
	}],
	"images":[{
		"uri":"data:image/jpeg;base64,"
	}],
	"samplers":[{
		"magFilter":9729,
		"minFilter":9729,
		"wrapS":10497,
		"wrapT":10497
	}],
	"textures":[{
		"sampler":0,
		"source":0
	}],
	"materials":[{
		"pbrMetallicRoughness":{
			"baseColorTexture":{
				"index":0
			},
			"baseColorFactor":[1.0,
			1.0,
			1.0,
			1.0],
			"metallicFactor":0.0,
			"roughnessFactor":0.5
		},
		"emissiveFactor":[0.0,
		0.0,
		0.0],
		"alphaMode":"OPAQUE",
		"doubleSided":false,
		"name":"ttest_mcdonalds_logo"
	}],
	"animations":[{
		"samplers":[{
			"input":4,
			"interpolation":"LINEAR",
			"output":5
		},
		{
			"input":6,
			"interpolation":"LINEAR",
			"output":7
		},
		{
			"input":8,
			"interpolation":"LINEAR",
			"output":9
		}],
		"channels":[{
			"sampler":0,
			"target":{
				"node":2,
				"path":"translation"
			}
		},
		{
			"sampler":1,
			"target":{
				"node":2,
				"path":"rotation"
			}
		},
		{
			"sampler":2,
			"target":{
				"node":2,
				"path":"scale"
			}
		}]
	}]
}