{
	"asset":{
		"version":"2.0",
		"generator":"Created using the official Cinema 4D glTF Exporter 1.000x290161"
	},
	"scenes":[{
		"nodes":[0,
		1,
		2]
	}],
	"nodes":[{
		"name":"Camera",
		"translation":[-505.22003173828127,
		177.31390380859376,
		-49.037906646728519],
		"scale":[1.0,
		1.0,
		1.0],
		"rotation":[0.037414100021123889,
		-0.7018024921417236,
		0.03695986419916153,
		0.7104276418685913],
		"camera":0
	},
	{
		"name":"Joint"
	},
	{
		"name":"big_mac",
		"translation":[-0.00001784312007657718,
		-30.912553787231447,
		-0.000023178385163191706],
		"scale":[1.0,
		1.1200000047683716,
		1.0],
		"rotation":[2.630867754760402e-7,
		-0.740750253200531,
		4.736321201903593e-8,
		0.6717804670333862],
		"mesh":0
	}],
	"meshes":[{
		"primitives":[{
			"attributes":{
				"POSITION":1,
				"NORMAL":2,
				"TEXCOORD_0":3
			},
			"indices":0,
			"material":0
		}]
	}],
	"cameras":[{
		"type":"perspective",
		"perspective":{
			"znear":0.009999999776482582,
			"zfar":10000000000.0,
			"aspectRatio":1.0,
			"yfov":1.084342122077942
		}
	}],
	"accessors":[{
		"bufferView":0,
		"type":"SCALAR",
		"componentType":5123,
		"count":12288,
		"byteOffset":0,
		"min":[0],
		"max":[2209]
	},
	{
		"bufferView":1,
		"type":"VEC3",
		"componentType":5126,
		"count":2210,
		"byteOffset":0,
		"min":[-92.0,
		-92.0,
		-92.0],
		"max":[92.0,
		114.37899017333985,
		92.0]
	},
	{
		"bufferView":1,
		"type":"VEC3",
		"componentType":5126,
		"count":2210,
		"byteOffset":12,
		"min":[-0.9999999403953552,
		-0.9999999403953552,
		-0.9999999403953552],
		"max":[0.9999999403953552,
		1.0,
		0.9999999403953552]
	},
	{
		"bufferView":1,
		"type":"VEC2",
		"componentType":5126,
		"count":2210,
		"byteOffset":24,
		"min":[0.0,
		0.0],
		"max":[1.0,
		0.8669999837875366]
	},
	{
		"bufferView":2,
		"type":"SCALAR",
		"componentType":5126,
		"count":3,
		"byteOffset":0,
		"min":[0.0],
		"max":[2.6666667461395265]
	},
	{
		"bufferView":2,
		"type":"VEC3",
		"componentType":5126,
		"count":3,
		"byteOffset":12,
		"min":[-0.00001784312007657718,
		-30.912553787231447,
		-0.000023178385163191706],
		"max":[-0.00001784312007657718,
		-30.912553787231447,
		-0.000023178385163191706]
	},
	{
		"bufferView":3,
		"type":"SCALAR",
		"componentType":5126,
		"count":4,
		"byteOffset":0,
		"min":[0.0],
		"max":[2.6666667461395265]
	},
	{
		"bufferView":3,
		"type":"VEC4",
		"componentType":5126,
		"count":4,
		"byteOffset":16,
		"min":[2.630867754760402e-7,
		-0.740750253200531,
		4.736321201903593e-8,
		0.6717804670333862],
		"max":[2.630867754760402e-7,
		-0.740750253200531,
		4.736321201903593e-8,
		0.6717804670333862]
	},
	{
		"bufferView":4,
		"type":"SCALAR",
		"componentType":5126,
		"count":3,
		"byteOffset":0,
		"min":[0.0],
		"max":[2.6666667461395265]
	},
	{
		"bufferView":4,
		"type":"VEC3",
		"componentType":5126,
		"count":3,
		"byteOffset":12,
		"min":[1.0,
		1.1200000047683716,
		1.0],
		"max":[1.0,
		1.1200000047683716,
		1.0]
	}],
	"bufferViews":[{
		"buffer":0,
		"byteLength":24576,
		"byteOffset":0,
		"target":34963
	},
	{
		"buffer":0,
		"byteLength":70720,
		"byteOffset":24576,
		"target":34962,
		"byteStride":32
	},
	{
		"buffer":1,
		"byteLength":48,
		"byteOffset":0
	},
	{
		"buffer":1,
		"byteLength":80,
		"byteOffset":48
	},
	{
		"buffer":1,
		"byteLength":48,
		"byteOffset":128
	}],
	"buffers":[{
		"uri":"data:application/octet-stream;base64,",
		"byteLength":95296
	},
	{
		"uri":"data:application/octet-stream;base64,",
		"byteLength":176
	}],
	"images":[{
		"uri":"data:image/jpeg;base64,"
	}],
	"samplers":[{
		"magFilter":9729,
		"minFilter":9729,
		"wrapS":10497,
		"wrapT":10497
	}],
	"textures":[{
		"sampler":0,
		"source":0
	}],
	"materials":[{
		"pbrMetallicRoughness":{
			"baseColorTexture":{
				"index":0
			},
			"baseColorFactor":[1.0,
			1.0,
			1.0,
			1.0],
			"metallicFactor":0.0,
			"roughnessFactor":0.5
		},
		"emissiveFactor":[0.0,
		0.0,
		0.0],
		"alphaMode":"OPAQUE",
		"doubleSided":false,
		"name":"Mat"
	}],
	"animations":[{
		"samplers":[{
			"input":4,
			"interpolation":"LINEAR",
			"output":5
		},
		{
			"input":6,
			"interpolation":"LINEAR",
			"output":7
		},
		{
			"input":8,
			"interpolation":"LINEAR",
			"output":9
		}],
		"channels":[{
			"sampler":0,
			"target":{
				"node":2,
				"path":"translation"
			}
		},
		{
			"sampler":1,
			"target":{
				"node":2,
				"path":"rotation"
			}
		},
		{
			"sampler":2,
			"target":{
				"node":2,
				"path":"scale"
			}
		}]
	}]
}